<?xml version="1.0" standalone="no"?><!DOCTYPE svg PUBLIC "-//W3C//DTD SVG 1.1//EN" "http://www.w3.org/Graphics/SVG/1.1/DTD/svg11.dtd"><svg t="1627393736567" class="icon" viewBox="0 0 1024 1024" version="1.1" xmlns="http://www.w3.org/2000/svg" p-id="1293" xmlns:xlink="http://www.w3.org/1999/xlink" width="200" height="200"><defs><style type="text/css">@font-face { font-family: feedback-iconfont; src: url("//at.alicdn.com/t/font_1031158_1uhr8ri0pk5.eot?#iefix") format("embedded-opentype"), url("//at.alicdn.com/t/font_1031158_1uhr8ri0pk5.woff2") format("woff2"), url("//at.alicdn.com/t/font_1031158_1uhr8ri0pk5.woff") format("woff"), url("//at.alicdn.com/t/font_1031158_1uhr8ri0pk5.ttf") format("truetype"), url("//at.alicdn.com/t/font_1031158_1uhr8ri0pk5.svg#iconfont") format("svg"); }
</style></defs><path d="M469.333333 0v170.666667h85.333334V0h-85.333334m311.466667 97.706667l-130.56 128 59.733333 60.586666 130.56-128-59.733333-60.586666m-537.173333 0L183.04 158.293333l128 128 60.586667-60.586666-128-128M512 256a170.666667 170.666667 0 0 0-170.666667 170.666667v256H256v85.333333h128v213.333333h85.333333v-213.333333h85.333334v213.333333h85.333333v-213.333333h128v-85.333333h-85.333333v-256a170.666667 170.666667 0 0 0-170.666667-170.666667M85.333333 384v85.333333h170.666667V384H85.333333m682.666667 0v85.333333h170.666667V384h-170.666667z" fill="#d81e06" p-id="1294"></path></svg>